<?xml version="1.0" encoding="UTF-8" standalone="no"?>
<!DOCTYPE svg PUBLIC "-//W3C//DTD SVG 1.1//EN"
 "http://www.w3.org/Graphics/SVG/1.1/DTD/svg11.dtd">
<!-- Generated by graphviz version 2.47.0 (20210316.0004)
 -->
<!-- Title: dependencies Pages: 1 -->
<svg width="504pt" height="211pt"
 viewBox="0.00 0.00 504.00 211.00" xmlns="http://www.w3.org/2000/svg" xmlns:xlink="http://www.w3.org/1999/xlink">
<g id="graph0" class="graph" transform="scale(1 1) rotate(0) translate(4 207)">
<title>dependencies</title>
<polygon fill="white" stroke="transparent" points="-4,4 -4,-207 500,-207 500,4 -4,4"/>
<text text-anchor="start" x="227.01" y="-42.4" font-family="Times-12" font-weight="bold" font-size="14.00">Legend</text>
<polygon fill="#ffffb3" stroke="transparent" points="14,-10 14,-30 34,-30 34,-10 14,-10"/>
<text text-anchor="start" x="37.63" y="-15.4" font-family="Times-12" font-size="14.00"> &#160;Declarations</text>
<polygon fill="#8dd3c7" stroke="transparent" points="127,-10 127,-30 147,-30 147,-10 127,-10"/>
<text text-anchor="start" x="150.73" y="-15.4" font-family="Times-12" font-size="14.00"> &#160;Module</text>
<polygon fill="#80b1d3" stroke="transparent" points="213,-10 213,-30 233,-30 233,-10 213,-10"/>
<text text-anchor="start" x="236.78" y="-15.4" font-family="Times-12" font-size="14.00"> &#160;Bootstrap</text>
<polygon fill="#fdb462" stroke="transparent" points="310,-10 310,-30 330,-30 330,-10 310,-10"/>
<text text-anchor="start" x="333.67" y="-15.4" font-family="Times-12" font-size="14.00"> &#160;Providers</text>
<polygon fill="#fb8072" stroke="transparent" points="406,-10 406,-30 426,-30 426,-10 406,-10"/>
<text text-anchor="start" x="429.73" y="-15.4" font-family="Times-12" font-size="14.00"> &#160;Exports</text>
<g id="clust1" class="cluster">
<title>cluster_SharedModule</title>
<polygon fill="none" stroke="black" stroke-dasharray="1,5" points="39,-70 39,-195 457,-195 457,-70 39,-70"/>
</g>
<g id="clust4" class="cluster">
<title>cluster_SharedModule_exports</title>
<polygon fill="none" stroke="black" points="47,-135 47,-187 449,-187 449,-135 47,-135"/>
</g>
<!-- BsImportModule  -->
<g id="node1" class="node">
<title>BsImportModule </title>
<polygon fill="#fb8072" stroke="black" points="440.93,-179 325.07,-179 325.07,-143 440.93,-143 440.93,-179"/>
<text text-anchor="middle" x="383" y="-156.8" font-family="Times,serif" font-size="14.00">BsImportModule </text>
</g>
<!-- CeImportModule  -->
<g id="node2" class="node">
<title>CeImportModule </title>
<polygon fill="#fb8072" stroke="black" points="307.2,-179 190.8,-179 190.8,-143 307.2,-143 307.2,-179"/>
<text text-anchor="middle" x="249" y="-156.8" font-family="Times,serif" font-size="14.00">CeImportModule </text>
</g>
<!-- NgImportModule  -->
<g id="node3" class="node">
<title>NgImportModule </title>
<polygon fill="#fb8072" stroke="black" points="173.26,-179 54.74,-179 54.74,-143 173.26,-143 173.26,-179"/>
<text text-anchor="middle" x="114" y="-156.8" font-family="Times,serif" font-size="14.00">NgImportModule </text>
</g>
<!-- SharedModule -->
<g id="node4" class="node">
<title>SharedModule</title>
<polygon fill="#8dd3c7" stroke="black" points="298.42,-114 295.42,-118 274.42,-118 271.42,-114 199.58,-114 199.58,-78 298.42,-78 298.42,-114"/>
<text text-anchor="middle" x="249" y="-91.8" font-family="Times,serif" font-size="14.00">SharedModule</text>
</g>
<!-- SharedModule&#45;&gt;BsImportModule  -->
<g id="edge1" class="edge">
<title>SharedModule&#45;&gt;BsImportModule </title>
<path fill="none" stroke="black" stroke-dasharray="5,2" d="M298.52,-96C336.69,-96 383,-96 383,-96 383,-96 383,-132.89 383,-132.89"/>
<polygon fill="black" stroke="black" points="379.5,-132.89 383,-142.89 386.5,-132.89 379.5,-132.89"/>
</g>
<!-- SharedModule&#45;&gt;CeImportModule  -->
<g id="edge2" class="edge">
<title>SharedModule&#45;&gt;CeImportModule </title>
<path fill="none" stroke="black" stroke-dasharray="5,2" d="M249,-114.11C249,-114.11 249,-132.99 249,-132.99"/>
<polygon fill="black" stroke="black" points="245.5,-132.99 249,-142.99 252.5,-132.99 245.5,-132.99"/>
</g>
<!-- SharedModule&#45;&gt;NgImportModule  -->
<g id="edge3" class="edge">
<title>SharedModule&#45;&gt;NgImportModule </title>
<path fill="none" stroke="black" stroke-dasharray="5,2" d="M199.5,-96C160.97,-96 114,-96 114,-96 114,-96 114,-132.89 114,-132.89"/>
<polygon fill="black" stroke="black" points="110.5,-132.89 114,-142.89 117.5,-132.89 110.5,-132.89"/>
</g>
</g>
</svg>
