<?xml version="1.0" encoding="UTF-8" standalone="no"?>
<!DOCTYPE svg PUBLIC "-//W3C//DTD SVG 1.1//EN"
 "http://www.w3.org/Graphics/SVG/1.1/DTD/svg11.dtd">
<!-- Generated by graphviz version 2.47.0 (20210316.0004)
 -->
<!-- Title: dependencies Pages: 1 -->
<svg width="1018pt" height="284pt"
 viewBox="0.00 0.00 1018.00 284.00" xmlns="http://www.w3.org/2000/svg" xmlns:xlink="http://www.w3.org/1999/xlink">
<g id="graph0" class="graph" transform="scale(1 1) rotate(0) translate(4 280)">
<title>dependencies</title>
<polygon fill="white" stroke="transparent" points="-4,4 -4,-280 1014,-280 1014,4 -4,4"/>
<text text-anchor="start" x="484.01" y="-42.4" font-family="Times-12" font-weight="bold" font-size="14.00">Legend</text>
<polygon fill="#ffffb3" stroke="transparent" points="271,-10 271,-30 291,-30 291,-10 271,-10"/>
<text text-anchor="start" x="294.63" y="-15.4" font-family="Times-12" font-size="14.00"> &#160;Declarations</text>
<polygon fill="#8dd3c7" stroke="transparent" points="384,-10 384,-30 404,-30 404,-10 384,-10"/>
<text text-anchor="start" x="407.73" y="-15.4" font-family="Times-12" font-size="14.00"> &#160;Module</text>
<polygon fill="#80b1d3" stroke="transparent" points="470,-10 470,-30 490,-30 490,-10 470,-10"/>
<text text-anchor="start" x="493.78" y="-15.4" font-family="Times-12" font-size="14.00"> &#160;Bootstrap</text>
<polygon fill="#fdb462" stroke="transparent" points="567,-10 567,-30 587,-30 587,-10 567,-10"/>
<text text-anchor="start" x="590.67" y="-15.4" font-family="Times-12" font-size="14.00"> &#160;Providers</text>
<polygon fill="#fb8072" stroke="transparent" points="663,-10 663,-30 683,-30 683,-10 663,-10"/>
<text text-anchor="start" x="686.73" y="-15.4" font-family="Times-12" font-size="14.00"> &#160;Exports</text>
<g id="clust1" class="cluster">
<title>cluster_ViewsModule</title>
<polygon fill="none" stroke="black" stroke-dasharray="1,5" points="8,-70 8,-268 1002,-268 1002,-70 8,-70"/>
</g>
<g id="clust8" class="cluster">
<title>cluster_ViewsModule_exports</title>
<polygon fill="none" stroke="black" points="128,-208 128,-260 874,-260 874,-208 128,-208"/>
</g>
<g id="clust7" class="cluster">
<title>cluster_ViewsModule_imports</title>
<polygon fill="none" stroke="black" points="757,-78 757,-130 994,-130 994,-78 757,-78"/>
</g>
<g id="clust2" class="cluster">
<title>cluster_ViewsModule_declarations</title>
<polygon fill="none" stroke="black" points="16,-78 16,-130 749,-130 749,-78 16,-78"/>
</g>
<!-- ViewLoginComponent -->
<g id="node1" class="node">
<title>ViewLoginComponent</title>
<polygon fill="#ffffb3" stroke="black" points="740.59,-122 595.41,-122 595.41,-86 740.59,-86 740.59,-122"/>
<text text-anchor="middle" x="668" y="-99.8" font-family="Times,serif" font-size="14.00">ViewLoginComponent</text>
</g>
<!-- ViewsModule -->
<g id="node5" class="node">
<title>ViewsModule</title>
<polygon fill="#8dd3c7" stroke="black" points="558.81,-187 555.81,-191 534.81,-191 531.81,-187 463.19,-187 463.19,-151 558.81,-151 558.81,-187"/>
<text text-anchor="middle" x="511" y="-164.8" font-family="Times,serif" font-size="14.00">ViewsModule</text>
</g>
<!-- ViewLoginComponent&#45;&gt;ViewsModule -->
<g id="edge1" class="edge">
<title>ViewLoginComponent&#45;&gt;ViewsModule</title>
<path fill="none" stroke="black" d="M647.71,-122.01C647.71,-138.05 647.71,-159 647.71,-159 647.71,-159 568.81,-159 568.81,-159"/>
<polygon fill="black" stroke="black" points="568.81,-155.5 558.81,-159 568.81,-162.5 568.81,-155.5"/>
</g>
<!-- ViewNotFoundComponent -->
<g id="node2" class="node">
<title>ViewNotFoundComponent</title>
<polygon fill="#ffffb3" stroke="black" points="577.43,-122 408.57,-122 408.57,-86 577.43,-86 577.43,-122"/>
<text text-anchor="middle" x="493" y="-99.8" font-family="Times,serif" font-size="14.00">ViewNotFoundComponent</text>
</g>
<!-- ViewNotFoundComponent&#45;&gt;ViewsModule -->
<g id="edge2" class="edge">
<title>ViewNotFoundComponent&#45;&gt;ViewsModule</title>
<path fill="none" stroke="black" d="M511,-122.11C511,-122.11 511,-140.99 511,-140.99"/>
<polygon fill="black" stroke="black" points="507.5,-140.99 511,-150.99 514.5,-140.99 507.5,-140.99"/>
</g>
<!-- ViewProductCatalogComponent -->
<g id="node3" class="node">
<title>ViewProductCatalogComponent</title>
<polygon fill="#ffffb3" stroke="black" points="390.25,-122 191.75,-122 191.75,-86 390.25,-86 390.25,-122"/>
<text text-anchor="middle" x="291" y="-99.8" font-family="Times,serif" font-size="14.00">ViewProductCatalogComponent</text>
</g>
<!-- ViewProductCatalogComponent&#45;&gt;ViewsModule -->
<g id="edge3" class="edge">
<title>ViewProductCatalogComponent&#45;&gt;ViewsModule</title>
<path fill="none" stroke="black" d="M349.12,-122.03C349.12,-138.4 349.12,-160 349.12,-160 349.12,-160 453.31,-160 453.31,-160"/>
<polygon fill="black" stroke="black" points="453.31,-163.5 463.31,-160 453.31,-156.5 453.31,-163.5"/>
</g>
<!-- ViewProfileComponent -->
<g id="node4" class="node">
<title>ViewProfileComponent</title>
<polygon fill="#ffffb3" stroke="black" points="173.75,-122 24.25,-122 24.25,-86 173.75,-86 173.75,-122"/>
<text text-anchor="middle" x="99" y="-99.8" font-family="Times,serif" font-size="14.00">ViewProfileComponent</text>
</g>
<!-- ViewProfileComponent&#45;&gt;ViewsModule -->
<g id="edge4" class="edge">
<title>ViewProfileComponent&#45;&gt;ViewsModule</title>
<path fill="none" stroke="black" d="M155.12,-122.11C155.12,-141.34 155.12,-169 155.12,-169 155.12,-169 453.01,-169 453.01,-169"/>
<polygon fill="black" stroke="black" points="453.01,-172.5 463.01,-169 453.01,-165.5 453.01,-172.5"/>
</g>
<!-- ViewLoginComponent  -->
<g id="node8" class="node">
<title>ViewLoginComponent </title>
<polygon fill="#fb8072" stroke="black" points="866.09,-252 717.91,-252 717.91,-216 866.09,-216 866.09,-252"/>
<text text-anchor="middle" x="792" y="-229.8" font-family="Times,serif" font-size="14.00">ViewLoginComponent </text>
</g>
<!-- ViewsModule&#45;&gt;ViewLoginComponent  -->
<g id="edge7" class="edge">
<title>ViewsModule&#45;&gt;ViewLoginComponent </title>
<path fill="none" stroke="black" stroke-dasharray="5,2" d="M558.87,-180C623.08,-180 729.12,-180 729.12,-180 729.12,-180 729.12,-205.72 729.12,-205.72"/>
<polygon fill="black" stroke="black" points="725.63,-205.72 729.12,-215.72 732.63,-205.72 725.63,-205.72"/>
</g>
<!-- ViewNotFoundComponent  -->
<g id="node9" class="node">
<title>ViewNotFoundComponent </title>
<polygon fill="#fb8072" stroke="black" points="699.93,-252 528.07,-252 528.07,-216 699.93,-216 699.93,-252"/>
<text text-anchor="middle" x="614" y="-229.8" font-family="Times,serif" font-size="14.00">ViewNotFoundComponent </text>
</g>
<!-- ViewsModule&#45;&gt;ViewNotFoundComponent  -->
<g id="edge8" class="edge">
<title>ViewsModule&#45;&gt;ViewNotFoundComponent </title>
<path fill="none" stroke="black" stroke-dasharray="5,2" d="M543.35,-187.11C543.35,-187.11 543.35,-205.99 543.35,-205.99"/>
<polygon fill="black" stroke="black" points="539.85,-205.99 543.35,-215.99 546.85,-205.99 539.85,-205.99"/>
</g>
<!-- ViewProductCatalogComponent  -->
<g id="node10" class="node">
<title>ViewProductCatalogComponent </title>
<polygon fill="#fb8072" stroke="black" points="510.25,-252 307.75,-252 307.75,-216 510.25,-216 510.25,-252"/>
<text text-anchor="middle" x="409" y="-229.8" font-family="Times,serif" font-size="14.00">ViewProductCatalogComponent </text>
</g>
<!-- ViewsModule&#45;&gt;ViewProductCatalogComponent  -->
<g id="edge9" class="edge">
<title>ViewsModule&#45;&gt;ViewProductCatalogComponent </title>
<path fill="none" stroke="black" stroke-dasharray="5,2" d="M486.73,-187.11C486.73,-187.11 486.73,-205.99 486.73,-205.99"/>
<polygon fill="black" stroke="black" points="483.23,-205.99 486.73,-215.99 490.23,-205.99 483.23,-205.99"/>
</g>
<!-- ViewProfileComponent  -->
<g id="node11" class="node">
<title>ViewProfileComponent </title>
<polygon fill="#fb8072" stroke="black" points="289.75,-252 136.25,-252 136.25,-216 289.75,-216 289.75,-252"/>
<text text-anchor="middle" x="213" y="-229.8" font-family="Times,serif" font-size="14.00">ViewProfileComponent </text>
</g>
<!-- ViewsModule&#45;&gt;ViewProfileComponent  -->
<g id="edge10" class="edge">
<title>ViewsModule&#45;&gt;ViewProfileComponent </title>
<path fill="none" stroke="black" stroke-dasharray="5,2" d="M463.28,-178C385.67,-178 240.63,-178 240.63,-178 240.63,-178 240.63,-205.97 240.63,-205.97"/>
<polygon fill="black" stroke="black" points="237.13,-205.97 240.63,-215.97 244.13,-205.97 237.13,-205.97"/>
</g>
<!-- LayoutsModule -->
<g id="node6" class="node">
<title>LayoutsModule</title>
<polygon fill="#8dd3c7" stroke="black" points="986.15,-122 983.15,-126 962.15,-126 959.15,-122 881.85,-122 881.85,-86 986.15,-86 986.15,-122"/>
<text text-anchor="middle" x="934" y="-99.8" font-family="Times,serif" font-size="14.00">LayoutsModule</text>
</g>
<!-- LayoutsModule&#45;&gt;ViewsModule -->
<g id="edge5" class="edge">
<title>LayoutsModule&#45;&gt;ViewsModule</title>
<path fill="none" stroke="black" d="M934,-122.13C934,-142.57 934,-173 934,-173 934,-173 568.7,-173 568.7,-173"/>
<polygon fill="black" stroke="black" points="568.7,-169.5 558.7,-173 568.7,-176.5 568.7,-169.5"/>
</g>
<!-- SharedModule -->
<g id="node7" class="node">
<title>SharedModule</title>
<polygon fill="#8dd3c7" stroke="black" points="863.42,-122 860.42,-126 839.42,-126 836.42,-122 764.58,-122 764.58,-86 863.42,-86 863.42,-122"/>
<text text-anchor="middle" x="814" y="-99.8" font-family="Times,serif" font-size="14.00">SharedModule</text>
</g>
<!-- SharedModule&#45;&gt;ViewsModule -->
<g id="edge6" class="edge">
<title>SharedModule&#45;&gt;ViewsModule</title>
<path fill="none" stroke="black" d="M814,-122.27C814,-140.56 814,-166 814,-166 814,-166 568.68,-166 568.68,-166"/>
<polygon fill="black" stroke="black" points="568.68,-162.5 558.68,-166 568.68,-169.5 568.68,-162.5"/>
</g>
</g>
</svg>
