<?xml version="1.0" encoding="UTF-8" standalone="no"?>
<!DOCTYPE svg PUBLIC "-//W3C//DTD SVG 1.1//EN"
 "http://www.w3.org/Graphics/SVG/1.1/DTD/svg11.dtd">
<!-- Generated by graphviz version 2.47.0 (20210316.0004)
 -->
<!-- Title: dependencies Pages: 1 -->
<svg width="4426pt" height="436pt"
 viewBox="0.00 0.00 4426.00 436.00" xmlns="http://www.w3.org/2000/svg" xmlns:xlink="http://www.w3.org/1999/xlink">
<g id="graph0" class="graph" transform="scale(1 1) rotate(0) translate(4 432)">
<title>dependencies</title>
<polygon fill="white" stroke="transparent" points="-4,4 -4,-432 4422,-432 4422,4 -4,4"/>
<text text-anchor="start" x="2188.01" y="-42.4" font-family="Times-12" font-weight="bold" font-size="14.00">Legend</text>
<polygon fill="#ffffb3" stroke="transparent" points="1975,-10 1975,-30 1995,-30 1995,-10 1975,-10"/>
<text text-anchor="start" x="1998.63" y="-15.4" font-family="Times-12" font-size="14.00"> &#160;Declarations</text>
<polygon fill="#8dd3c7" stroke="transparent" points="2088,-10 2088,-30 2108,-30 2108,-10 2088,-10"/>
<text text-anchor="start" x="2111.73" y="-15.4" font-family="Times-12" font-size="14.00"> &#160;Module</text>
<polygon fill="#80b1d3" stroke="transparent" points="2174,-10 2174,-30 2194,-30 2194,-10 2174,-10"/>
<text text-anchor="start" x="2197.78" y="-15.4" font-family="Times-12" font-size="14.00"> &#160;Bootstrap</text>
<polygon fill="#fdb462" stroke="transparent" points="2271,-10 2271,-30 2291,-30 2291,-10 2271,-10"/>
<text text-anchor="start" x="2294.67" y="-15.4" font-family="Times-12" font-size="14.00"> &#160;Providers</text>
<polygon fill="#fb8072" stroke="transparent" points="2367,-10 2367,-30 2387,-30 2387,-10 2367,-10"/>
<text text-anchor="start" x="2390.73" y="-15.4" font-family="Times-12" font-size="14.00"> &#160;Exports</text>
<g id="clust1" class="cluster">
<title>cluster_AppModule</title>
<polygon fill="none" stroke="black" stroke-dasharray="1,5" points="2988,-222 2988,-420 3238,-420 3238,-222 2988,-222"/>
</g>
<g id="clust2" class="cluster">
<title>cluster_AppModule_declarations</title>
<polygon fill="none" stroke="black" points="3108,-230 3108,-282 3230,-282 3230,-230 3108,-230"/>
</g>
<g id="clust4" class="cluster">
<title>cluster_AppModule_imports</title>
<polygon fill="none" stroke="black" points="2996,-230 2996,-282 3100,-282 3100,-230 2996,-230"/>
</g>
<g id="clust6" class="cluster">
<title>cluster_AppModule_bootstrap</title>
<polygon fill="none" stroke="black" points="3051,-360 3051,-412 3175,-412 3175,-360 3051,-360"/>
</g>
<g id="clust8" class="cluster">
<title>cluster_AuthModule</title>
<polygon fill="none" stroke="black" stroke-dasharray="1,5" points="4246,-70 4246,-206 4410,-206 4410,-70 4246,-70"/>
</g>
<g id="clust10" class="cluster">
<title>cluster_AuthModule_imports</title>
<polygon fill="none" stroke="black" points="4254,-78 4254,-130 4402,-130 4402,-78 4254,-78"/>
</g>
<g id="clust32" class="cluster">
<title>cluster_CoreModule</title>
<polygon fill="none" stroke="black" stroke-dasharray="1,5" points="3874,-70 3874,-206 4238,-206 4238,-70 3874,-70"/>
</g>
<g id="clust37" class="cluster">
<title>cluster_CoreModule_providers</title>
<polygon fill="none" stroke="black" points="3882,-78 3882,-130 4230,-130 4230,-78 3882,-78"/>
</g>
<g id="clust50" class="cluster">
<title>cluster_ProductModule</title>
<polygon fill="none" stroke="black" stroke-dasharray="1,5" points="8,-70 8,-290 2227,-290 2227,-70 8,-70"/>
</g>
<g id="clust51" class="cluster">
<title>cluster_ProductModule_declarations</title>
<polygon fill="none" stroke="black" points="16,-78 16,-130 1931,-130 1931,-78 16,-78"/>
</g>
<g id="clust62" class="cluster">
<title>cluster_ProductModule_imports</title>
<polygon fill="none" stroke="black" points="1939,-78 1939,-130 2219,-130 2219,-78 1939,-78"/>
</g>
<g id="clust63" class="cluster">
<title>cluster_ProductModule_exports</title>
<polygon fill="none" stroke="black" points="260,-230 260,-282 2021,-282 2021,-230 260,-230"/>
</g>
<g id="clust72" class="cluster">
<title>cluster_SharedModule</title>
<polygon fill="none" stroke="black" stroke-dasharray="1,5" points="2235,-146 2235,-214 2653,-214 2653,-146 2235,-146"/>
</g>
<g id="clust75" class="cluster">
<title>cluster_SharedModule_exports</title>
<polygon fill="none" stroke="black" points="2243,-154 2243,-206 2645,-206 2645,-154 2243,-154"/>
</g>
<g id="clust78" class="cluster">
<title>cluster_ShellModule</title>
<polygon fill="none" stroke="black" stroke-dasharray="1,5" points="2780,-146 2780,-214 3331,-214 3331,-146 2780,-146"/>
</g>
<g id="clust79" class="cluster">
<title>cluster_ShellModule_declarations</title>
<polygon fill="none" stroke="black" points="3197,-154 3197,-206 3323,-206 3323,-154 3197,-154"/>
</g>
<g id="clust81" class="cluster">
<title>cluster_ShellModule_imports</title>
<polygon fill="none" stroke="black" points="2926,-154 2926,-206 3189,-206 3189,-154 2926,-154"/>
</g>
<g id="clust82" class="cluster">
<title>cluster_ShellModule_exports</title>
<polygon fill="none" stroke="black" points="2788,-154 2788,-206 2918,-206 2918,-154 2788,-154"/>
</g>
<g id="clust91" class="cluster">
<title>cluster_ViewsModule</title>
<polygon fill="none" stroke="black" stroke-dasharray="1,5" points="2235,-70 2235,-138 3866,-138 3866,-70 2235,-70"/>
</g>
<g id="clust92" class="cluster">
<title>cluster_ViewsModule_declarations</title>
<polygon fill="none" stroke="black" points="3125,-78 3125,-130 3858,-130 3858,-78 3125,-78"/>
</g>
<g id="clust97" class="cluster">
<title>cluster_ViewsModule_imports</title>
<polygon fill="none" stroke="black" points="2997,-78 2997,-130 3117,-130 3117,-78 2997,-78"/>
</g>
<g id="clust98" class="cluster">
<title>cluster_ViewsModule_exports</title>
<polygon fill="none" stroke="black" points="2243,-78 2243,-130 2989,-130 2989,-78 2243,-78"/>
</g>
<!-- AppComponent -->
<g id="node1" class="node">
<title>AppComponent</title>
<polygon fill="#ffffb3" stroke="black" points="3221.94,-274 3116.06,-274 3116.06,-238 3221.94,-238 3221.94,-274"/>
<text text-anchor="middle" x="3169" y="-251.8" font-family="Times,serif" font-size="14.00">AppComponent</text>
</g>
<!-- AppModule -->
<g id="node2" class="node">
<title>AppModule</title>
<polygon fill="#8dd3c7" stroke="black" points="3154.66,-339 3151.66,-343 3130.66,-343 3127.66,-339 3071.34,-339 3071.34,-303 3154.66,-303 3154.66,-339"/>
<text text-anchor="middle" x="3113" y="-316.8" font-family="Times,serif" font-size="14.00">AppModule</text>
</g>
<!-- AppComponent&#45;&gt;AppModule -->
<g id="edge1" class="edge">
<title>AppComponent&#45;&gt;AppModule</title>
<path fill="none" stroke="black" d="M3135.55,-274.11C3135.55,-274.11 3135.55,-292.99 3135.55,-292.99"/>
<polygon fill="black" stroke="black" points="3132.05,-292.99 3135.55,-302.99 3139.05,-292.99 3132.05,-292.99"/>
</g>
<!-- AppComponent  -->
<g id="node4" class="node">
<title>AppComponent </title>
<polygon fill="#80b1d3" stroke="black" points="3167.44,-404 3058.56,-404 3058.56,-368 3167.44,-368 3167.44,-404"/>
<text text-anchor="middle" x="3113" y="-381.8" font-family="Times,serif" font-size="14.00">AppComponent </text>
</g>
<!-- AppModule&#45;&gt;AppComponent  -->
<g id="edge3" class="edge">
<title>AppModule&#45;&gt;AppComponent </title>
<path fill="none" stroke="black" stroke-dasharray="1,5" d="M3113,-339.11C3113,-339.11 3113,-357.99 3113,-357.99"/>
<polygon fill="black" stroke="black" points="3109.5,-357.99 3113,-367.99 3116.5,-357.99 3109.5,-357.99"/>
</g>
<!-- ShellModule -->
<g id="node3" class="node">
<title>ShellModule</title>
<polygon fill="#8dd3c7" stroke="black" points="3092.33,-274 3089.33,-278 3068.33,-278 3065.33,-274 3003.67,-274 3003.67,-238 3092.33,-238 3092.33,-274"/>
<text text-anchor="middle" x="3048" y="-251.8" font-family="Times,serif" font-size="14.00">ShellModule</text>
</g>
<!-- ShellModule&#45;&gt;AppModule -->
<g id="edge2" class="edge">
<title>ShellModule&#45;&gt;AppModule</title>
<path fill="none" stroke="black" d="M3081.67,-274.11C3081.67,-274.11 3081.67,-292.99 3081.67,-292.99"/>
<polygon fill="black" stroke="black" points="3078.17,-292.99 3081.67,-302.99 3085.17,-292.99 3078.17,-292.99"/>
</g>
<!-- ShellComponent  -->
<g id="node38" class="node">
<title>ShellComponent </title>
<polygon fill="#fb8072" stroke="black" points="2909.61,-198 2796.39,-198 2796.39,-162 2909.61,-162 2909.61,-198"/>
<text text-anchor="middle" x="2853" y="-175.8" font-family="Times,serif" font-size="14.00">ShellComponent </text>
</g>
<!-- ShellModule&#45;&gt;ShellComponent  -->
<g id="edge36" class="edge">
<title>ShellModule&#45;&gt;ShellComponent </title>
<path fill="none" stroke="black" stroke-dasharray="5,2" d="M3003.75,-250C2946.22,-250 2853,-250 2853,-250 2853,-250 2853,-208.03 2853,-208.03"/>
<polygon fill="black" stroke="black" points="2856.5,-208.03 2853,-198.03 2849.5,-208.03 2856.5,-208.03"/>
</g>
<!-- AuthRoutingModule -->
<g id="node5" class="node">
<title>AuthRoutingModule</title>
<polygon fill="#8dd3c7" stroke="black" points="4394.17,-122 4391.17,-126 4370.17,-126 4367.17,-122 4261.83,-122 4261.83,-86 4394.17,-86 4394.17,-122"/>
<text text-anchor="middle" x="4328" y="-99.8" font-family="Times,serif" font-size="14.00">AuthRoutingModule</text>
</g>
<!-- AuthModule -->
<g id="node6" class="node">
<title>AuthModule</title>
<polygon fill="#8dd3c7" stroke="black" points="4371.55,-198 4368.55,-202 4347.55,-202 4344.55,-198 4284.45,-198 4284.45,-162 4371.55,-162 4371.55,-198"/>
<text text-anchor="middle" x="4328" y="-175.8" font-family="Times,serif" font-size="14.00">AuthModule</text>
</g>
<!-- AuthRoutingModule&#45;&gt;AuthModule -->
<g id="edge4" class="edge">
<title>AuthRoutingModule&#45;&gt;AuthModule</title>
<path fill="none" stroke="black" d="M4328,-122.01C4328,-122.01 4328,-151.85 4328,-151.85"/>
<polygon fill="black" stroke="black" points="4324.5,-151.85 4328,-161.85 4331.5,-151.85 4324.5,-151.85"/>
</g>
<!-- NotificationService -->
<g id="node7" class="node">
<title>NotificationService</title>
<ellipse fill="#fdb462" stroke="black" cx="4135" cy="-104" rx="86.81" ry="18"/>
<text text-anchor="middle" x="4135" y="-99.8" font-family="Times,serif" font-size="14.00">NotificationService</text>
</g>
<!-- CoreModule -->
<g id="node9" class="node">
<title>CoreModule</title>
<polygon fill="#8dd3c7" stroke="black" points="4003.26,-198 4000.26,-202 3979.26,-202 3976.26,-198 3916.74,-198 3916.74,-162 4003.26,-162 4003.26,-198"/>
<text text-anchor="middle" x="3960" y="-175.8" font-family="Times,serif" font-size="14.00">CoreModule</text>
</g>
<!-- NotificationService&#45;&gt;CoreModule -->
<g id="edge5" class="edge">
<title>NotificationService&#45;&gt;CoreModule</title>
<path fill="none" stroke="black" d="M4135,-122.01C4135,-144.49 4135,-180 4135,-180 4135,-180 4013.71,-180 4013.71,-180"/>
<polygon fill="black" stroke="black" points="4013.71,-176.5 4003.71,-180 4013.71,-183.5 4013.71,-176.5"/>
</g>
<!-- ProductService -->
<g id="node8" class="node">
<title>ProductService</title>
<ellipse fill="#fdb462" stroke="black" cx="3960" cy="-104" rx="70.06" ry="18"/>
<text text-anchor="middle" x="3960" y="-99.8" font-family="Times,serif" font-size="14.00">ProductService</text>
</g>
<!-- ProductService&#45;&gt;CoreModule -->
<g id="edge6" class="edge">
<title>ProductService&#45;&gt;CoreModule</title>
<path fill="none" stroke="black" d="M3960,-122.01C3960,-122.01 3960,-151.85 3960,-151.85"/>
<polygon fill="black" stroke="black" points="3956.5,-151.85 3960,-161.85 3963.5,-151.85 3956.5,-151.85"/>
</g>
<!-- CoreModule&#45;&gt;ShellModule -->
<g id="edge32" class="edge">
<title>CoreModule&#45;&gt;ShellModule</title>
<path fill="none" stroke="black" d="M3960,-198.04C3960,-210.56 3960,-225 3960,-225 3960,-225 3080.94,-225 3080.94,-225 3080.94,-225 3080.94,-227.97 3080.94,-227.97"/>
<polygon fill="black" stroke="black" points="3077.44,-227.97 3080.94,-237.97 3084.44,-227.97 3077.44,-227.97"/>
</g>
<!-- ProductConsumerDirective -->
<g id="node10" class="node">
<title>ProductConsumerDirective</title>
<polygon fill="#ffffb3" stroke="black" points="1922.68,-122 1753.32,-122 1753.32,-86 1922.68,-86 1922.68,-122"/>
<text text-anchor="middle" x="1838" y="-99.8" font-family="Times,serif" font-size="14.00">ProductConsumerDirective</text>
</g>
<!-- ProductModule -->
<g id="node20" class="node">
<title>ProductModule</title>
<polygon fill="#8dd3c7" stroke="black" points="1226.6,-198 1223.6,-202 1202.6,-202 1199.6,-198 1123.4,-198 1123.4,-162 1226.6,-162 1226.6,-198"/>
<text text-anchor="middle" x="1175" y="-175.8" font-family="Times,serif" font-size="14.00">ProductModule</text>
</g>
<!-- ProductConsumerDirective&#45;&gt;ProductModule -->
<g id="edge7" class="edge">
<title>ProductConsumerDirective&#45;&gt;ProductModule</title>
<path fill="none" stroke="black" d="M1770.85,-122.22C1770.85,-142.37 1770.85,-172 1770.85,-172 1770.85,-172 1236.58,-172 1236.58,-172"/>
<polygon fill="black" stroke="black" points="1236.58,-168.5 1226.58,-172 1236.58,-175.5 1236.58,-168.5"/>
</g>
<!-- ProductCreationFormComponent -->
<g id="node11" class="node">
<title>ProductCreationFormComponent</title>
<polygon fill="#ffffb3" stroke="black" points="1735.92,-122 1532.08,-122 1532.08,-86 1735.92,-86 1735.92,-122"/>
<text text-anchor="middle" x="1634" y="-99.8" font-family="Times,serif" font-size="14.00">ProductCreationFormComponent</text>
</g>
<!-- ProductCreationFormComponent&#45;&gt;ProductModule -->
<g id="edge8" class="edge">
<title>ProductCreationFormComponent&#45;&gt;ProductModule</title>
<path fill="none" stroke="black" d="M1569.82,-122.11C1569.82,-141.34 1569.82,-169 1569.82,-169 1569.82,-169 1236.62,-169 1236.62,-169"/>
<polygon fill="black" stroke="black" points="1236.62,-165.5 1226.62,-169 1236.62,-172.5 1236.62,-165.5"/>
</g>
<!-- ProductDetailComponent -->
<g id="node12" class="node">
<title>ProductDetailComponent</title>
<polygon fill="#ffffb3" stroke="black" points="1514.59,-122 1355.41,-122 1355.41,-86 1514.59,-86 1514.59,-122"/>
<text text-anchor="middle" x="1435" y="-99.8" font-family="Times,serif" font-size="14.00">ProductDetailComponent</text>
</g>
<!-- ProductDetailComponent&#45;&gt;ProductModule -->
<g id="edge9" class="edge">
<title>ProductDetailComponent&#45;&gt;ProductModule</title>
<path fill="none" stroke="black" d="M1393.27,-122.27C1393.27,-140.56 1393.27,-166 1393.27,-166 1393.27,-166 1236.73,-166 1236.73,-166"/>
<polygon fill="black" stroke="black" points="1236.73,-162.5 1226.73,-166 1236.73,-169.5 1236.73,-162.5"/>
</g>
<!-- ProductFilterComponent -->
<g id="node13" class="node">
<title>ProductFilterComponent</title>
<polygon fill="#ffffb3" stroke="black" points="1337.71,-122 1182.29,-122 1182.29,-86 1337.71,-86 1337.71,-122"/>
<text text-anchor="middle" x="1260" y="-99.8" font-family="Times,serif" font-size="14.00">ProductFilterComponent</text>
</g>
<!-- ProductFilterComponent&#45;&gt;ProductModule -->
<g id="edge10" class="edge">
<title>ProductFilterComponent&#45;&gt;ProductModule</title>
<path fill="none" stroke="black" d="M1204.47,-122.01C1204.47,-122.01 1204.47,-151.85 1204.47,-151.85"/>
<polygon fill="black" stroke="black" points="1200.97,-151.85 1204.47,-161.85 1207.97,-151.85 1200.97,-151.85"/>
</g>
<!-- ProductListComponent -->
<g id="node14" class="node">
<title>ProductListComponent</title>
<polygon fill="#ffffb3" stroke="black" points="1164.16,-122 1017.84,-122 1017.84,-86 1164.16,-86 1164.16,-122"/>
<text text-anchor="middle" x="1091" y="-99.8" font-family="Times,serif" font-size="14.00">ProductListComponent</text>
</g>
<!-- ProductListComponent&#45;&gt;ProductModule -->
<g id="edge11" class="edge">
<title>ProductListComponent&#45;&gt;ProductModule</title>
<path fill="none" stroke="black" d="M1143.89,-122.01C1143.89,-122.01 1143.89,-151.85 1143.89,-151.85"/>
<polygon fill="black" stroke="black" points="1140.39,-151.85 1143.89,-161.85 1147.39,-151.85 1140.39,-151.85"/>
</g>
<!-- ProductListItemComponent -->
<g id="node15" class="node">
<title>ProductListItemComponent</title>
<polygon fill="#ffffb3" stroke="black" points="1000.32,-122 827.68,-122 827.68,-86 1000.32,-86 1000.32,-122"/>
<text text-anchor="middle" x="914" y="-99.8" font-family="Times,serif" font-size="14.00">ProductListItemComponent</text>
</g>
<!-- ProductListItemComponent&#45;&gt;ProductModule -->
<g id="edge12" class="edge">
<title>ProductListItemComponent&#45;&gt;ProductModule</title>
<path fill="none" stroke="black" d="M951.46,-122.27C951.46,-140.56 951.46,-166 951.46,-166 951.46,-166 1113.44,-166 1113.44,-166"/>
<polygon fill="black" stroke="black" points="1113.44,-169.5 1123.44,-166 1113.44,-162.5 1113.44,-169.5"/>
</g>
<!-- ProductSearchComponent -->
<g id="node16" class="node">
<title>ProductSearchComponent</title>
<polygon fill="#ffffb3" stroke="black" points="809.47,-122 646.53,-122 646.53,-86 809.47,-86 809.47,-122"/>
<text text-anchor="middle" x="728" y="-99.8" font-family="Times,serif" font-size="14.00">ProductSearchComponent</text>
</g>
<!-- ProductSearchComponent&#45;&gt;ProductModule -->
<g id="edge13" class="edge">
<title>ProductSearchComponent&#45;&gt;ProductModule</title>
<path fill="none" stroke="black" d="M743.52,-122.03C743.52,-141.58 743.52,-170 743.52,-170 743.52,-170 1113.38,-170 1113.38,-170"/>
<polygon fill="black" stroke="black" points="1113.38,-173.5 1123.38,-170 1113.38,-166.5 1113.38,-173.5"/>
</g>
<!-- ProductViewCreationComponent -->
<g id="node17" class="node">
<title>ProductViewCreationComponent</title>
<polygon fill="#ffffb3" stroke="black" points="628.91,-122 425.09,-122 425.09,-86 628.91,-86 628.91,-122"/>
<text text-anchor="middle" x="527" y="-99.8" font-family="Times,serif" font-size="14.00">ProductViewCreationComponent</text>
</g>
<!-- ProductViewCreationComponent&#45;&gt;ProductModule -->
<g id="edge14" class="edge">
<title>ProductViewCreationComponent&#45;&gt;ProductModule</title>
<path fill="none" stroke="black" d="M547.62,-122.13C547.62,-142.57 547.62,-173 547.62,-173 547.62,-173 1113.39,-173 1113.39,-173"/>
<polygon fill="black" stroke="black" points="1113.39,-176.5 1123.39,-173 1113.39,-169.5 1113.39,-176.5"/>
</g>
<!-- ProductViewDetailComponent -->
<g id="node18" class="node">
<title>ProductViewDetailComponent</title>
<polygon fill="#ffffb3" stroke="black" points="407.91,-122 218.09,-122 218.09,-86 407.91,-86 407.91,-122"/>
<text text-anchor="middle" x="313" y="-99.8" font-family="Times,serif" font-size="14.00">ProductViewDetailComponent</text>
</g>
<!-- ProductViewDetailComponent&#45;&gt;ProductModule -->
<g id="edge15" class="edge">
<title>ProductViewDetailComponent&#45;&gt;ProductModule</title>
<path fill="none" stroke="black" d="M337.73,-122.04C337.73,-143.66 337.73,-177 337.73,-177 337.73,-177 1113.26,-177 1113.26,-177"/>
<polygon fill="black" stroke="black" points="1113.26,-180.5 1123.26,-177 1113.26,-173.5 1113.26,-180.5"/>
</g>
<!-- ProductViewListComponent -->
<g id="node19" class="node">
<title>ProductViewListComponent</title>
<polygon fill="#ffffb3" stroke="black" points="200.48,-122 23.52,-122 23.52,-86 200.48,-86 200.48,-122"/>
<text text-anchor="middle" x="112" y="-99.8" font-family="Times,serif" font-size="14.00">ProductViewListComponent</text>
</g>
<!-- ProductViewListComponent&#45;&gt;ProductModule -->
<g id="edge16" class="edge">
<title>ProductViewListComponent&#45;&gt;ProductModule</title>
<path fill="none" stroke="black" d="M112,-122.01C112,-144.49 112,-180 112,-180 112,-180 1113.37,-180 1113.37,-180"/>
<polygon fill="black" stroke="black" points="1113.37,-183.5 1123.37,-180 1113.37,-176.5 1113.37,-183.5"/>
</g>
<!-- ProductCreationFormComponent  -->
<g id="node23" class="node">
<title>ProductCreationFormComponent </title>
<polygon fill="#fb8072" stroke="black" points="2013.42,-274 1806.58,-274 1806.58,-238 2013.42,-238 2013.42,-274"/>
<text text-anchor="middle" x="1910" y="-251.8" font-family="Times,serif" font-size="14.00">ProductCreationFormComponent </text>
</g>
<!-- ProductModule&#45;&gt;ProductCreationFormComponent  -->
<g id="edge19" class="edge">
<title>ProductModule&#45;&gt;ProductCreationFormComponent </title>
<path fill="none" stroke="black" stroke-dasharray="5,2" d="M1226.83,-182C1387.2,-182 1864.56,-182 1864.56,-182 1864.56,-182 1864.56,-227.71 1864.56,-227.71"/>
<polygon fill="black" stroke="black" points="1861.06,-227.71 1864.56,-237.71 1868.06,-227.71 1861.06,-227.71"/>
</g>
<!-- ProductDetailComponent  -->
<g id="node24" class="node">
<title>ProductDetailComponent </title>
<polygon fill="#fb8072" stroke="black" points="1788.09,-274 1625.91,-274 1625.91,-238 1788.09,-238 1788.09,-274"/>
<text text-anchor="middle" x="1707" y="-251.8" font-family="Times,serif" font-size="14.00">ProductDetailComponent </text>
</g>
<!-- ProductModule&#45;&gt;ProductDetailComponent  -->
<g id="edge20" class="edge">
<title>ProductModule&#45;&gt;ProductDetailComponent </title>
<path fill="none" stroke="black" stroke-dasharray="5,2" d="M1226.74,-185C1355.63,-185 1680.71,-185 1680.71,-185 1680.71,-185 1680.71,-227.72 1680.71,-227.72"/>
<polygon fill="black" stroke="black" points="1677.21,-227.72 1680.71,-237.72 1684.21,-227.72 1677.21,-227.72"/>
</g>
<!-- ProductFilterComponent  -->
<g id="node25" class="node">
<title>ProductFilterComponent </title>
<polygon fill="#fb8072" stroke="black" points="1607.21,-274 1448.79,-274 1448.79,-238 1607.21,-238 1607.21,-274"/>
<text text-anchor="middle" x="1528" y="-251.8" font-family="Times,serif" font-size="14.00">ProductFilterComponent </text>
</g>
<!-- ProductModule&#45;&gt;ProductFilterComponent  -->
<g id="edge21" class="edge">
<title>ProductModule&#45;&gt;ProductFilterComponent </title>
<path fill="none" stroke="black" stroke-dasharray="5,2" d="M1226.66,-189C1314.04,-189 1481.59,-189 1481.59,-189 1481.59,-189 1481.59,-227.69 1481.59,-227.69"/>
<polygon fill="black" stroke="black" points="1478.09,-227.69 1481.59,-237.69 1485.09,-227.69 1478.09,-227.69"/>
</g>
<!-- ProductListComponent  -->
<g id="node26" class="node">
<title>ProductListComponent </title>
<polygon fill="#fb8072" stroke="black" points="1431.16,-274 1280.84,-274 1280.84,-238 1431.16,-238 1431.16,-274"/>
<text text-anchor="middle" x="1356" y="-251.8" font-family="Times,serif" font-size="14.00">ProductListComponent </text>
</g>
<!-- ProductModule&#45;&gt;ProductListComponent  -->
<g id="edge22" class="edge">
<title>ProductModule&#45;&gt;ProductListComponent </title>
<path fill="none" stroke="black" stroke-dasharray="5,2" d="M1226.91,-192C1264.69,-192 1309.26,-192 1309.26,-192 1309.26,-192 1309.26,-227.83 1309.26,-227.83"/>
<polygon fill="black" stroke="black" points="1305.76,-227.83 1309.26,-237.83 1312.76,-227.83 1305.76,-227.83"/>
</g>
<!-- ProductListItemComponent  -->
<g id="node27" class="node">
<title>ProductListItemComponent </title>
<polygon fill="#fb8072" stroke="black" points="1262.82,-274 1087.18,-274 1087.18,-238 1262.82,-238 1262.82,-274"/>
<text text-anchor="middle" x="1175" y="-251.8" font-family="Times,serif" font-size="14.00">ProductListItemComponent </text>
</g>
<!-- ProductModule&#45;&gt;ProductListItemComponent  -->
<g id="edge23" class="edge">
<title>ProductModule&#45;&gt;ProductListItemComponent </title>
<path fill="none" stroke="black" stroke-dasharray="5,2" d="M1175,-198.01C1175,-198.01 1175,-227.85 1175,-227.85"/>
<polygon fill="black" stroke="black" points="1171.5,-227.85 1175,-237.85 1178.5,-227.85 1171.5,-227.85"/>
</g>
<!-- ProductSearchComponent  -->
<g id="node28" class="node">
<title>ProductSearchComponent </title>
<polygon fill="#fb8072" stroke="black" points="1069.47,-274 902.53,-274 902.53,-238 1069.47,-238 1069.47,-274"/>
<text text-anchor="middle" x="986" y="-251.8" font-family="Times,serif" font-size="14.00">ProductSearchComponent </text>
</g>
<!-- ProductModule&#45;&gt;ProductSearchComponent  -->
<g id="edge24" class="edge">
<title>ProductModule&#45;&gt;ProductSearchComponent </title>
<path fill="none" stroke="black" stroke-dasharray="5,2" d="M1123.39,-195C1086.53,-195 1043.45,-195 1043.45,-195 1043.45,-195 1043.45,-227.7 1043.45,-227.7"/>
<polygon fill="black" stroke="black" points="1039.95,-227.7 1043.45,-237.7 1046.95,-227.7 1039.95,-227.7"/>
</g>
<!-- ProductViewCreationComponent  -->
<g id="node29" class="node">
<title>ProductViewCreationComponent </title>
<polygon fill="#fb8072" stroke="black" points="884.41,-274 677.59,-274 677.59,-238 884.41,-238 884.41,-274"/>
<text text-anchor="middle" x="781" y="-251.8" font-family="Times,serif" font-size="14.00">ProductViewCreationComponent </text>
</g>
<!-- ProductModule&#45;&gt;ProductViewCreationComponent  -->
<g id="edge25" class="edge">
<title>ProductModule&#45;&gt;ProductViewCreationComponent </title>
<path fill="none" stroke="black" stroke-dasharray="5,2" d="M1123.42,-191C1033.17,-191 856.15,-191 856.15,-191 856.15,-191 856.15,-227.89 856.15,-227.89"/>
<polygon fill="black" stroke="black" points="852.65,-227.89 856.15,-237.89 859.65,-227.89 852.65,-227.89"/>
</g>
<!-- ProductViewDetailComponent  -->
<g id="node30" class="node">
<title>ProductViewDetailComponent </title>
<polygon fill="#fb8072" stroke="black" points="659.41,-274 466.59,-274 466.59,-238 659.41,-238 659.41,-274"/>
<text text-anchor="middle" x="563" y="-251.8" font-family="Times,serif" font-size="14.00">ProductViewDetailComponent </text>
</g>
<!-- ProductModule&#45;&gt;ProductViewDetailComponent  -->
<g id="edge26" class="edge">
<title>ProductModule&#45;&gt;ProductViewDetailComponent </title>
<path fill="none" stroke="black" stroke-dasharray="5,2" d="M1123.04,-188C991,-188 652.98,-188 652.98,-188 652.98,-188 652.98,-227.78 652.98,-227.78"/>
<polygon fill="black" stroke="black" points="649.48,-227.78 652.98,-237.78 656.48,-227.78 649.48,-227.78"/>
</g>
<!-- ProductViewListComponent  -->
<g id="node31" class="node">
<title>ProductViewListComponent </title>
<polygon fill="#fb8072" stroke="black" points="448.48,-274 267.52,-274 267.52,-238 448.48,-238 448.48,-274"/>
<text text-anchor="middle" x="358" y="-251.8" font-family="Times,serif" font-size="14.00">ProductViewListComponent </text>
</g>
<!-- ProductModule&#45;&gt;ProductViewListComponent  -->
<g id="edge27" class="edge">
<title>ProductModule&#45;&gt;ProductViewListComponent </title>
<path fill="none" stroke="black" stroke-dasharray="5,2" d="M1123.38,-184C955.66,-184 436.77,-184 436.77,-184 436.77,-184 436.77,-227.83 436.77,-227.83"/>
<polygon fill="black" stroke="black" points="433.27,-227.83 436.77,-237.83 440.27,-227.83 433.27,-227.83"/>
</g>
<!-- ProductRoutingModule -->
<g id="node21" class="node">
<title>ProductRoutingModule</title>
<polygon fill="#8dd3c7" stroke="black" points="2095.22,-122 2092.22,-126 2071.22,-126 2068.22,-122 1946.78,-122 1946.78,-86 2095.22,-86 2095.22,-122"/>
<text text-anchor="middle" x="2021" y="-99.8" font-family="Times,serif" font-size="14.00">ProductRoutingModule</text>
</g>
<!-- ProductRoutingModule&#45;&gt;ProductModule -->
<g id="edge17" class="edge">
<title>ProductRoutingModule&#45;&gt;ProductModule</title>
<path fill="none" stroke="black" d="M1980.18,-122.17C1980.18,-143.5 1980.18,-176 1980.18,-176 1980.18,-176 1236.59,-176 1236.59,-176"/>
<polygon fill="black" stroke="black" points="1236.59,-172.5 1226.59,-176 1236.59,-179.5 1236.59,-172.5"/>
</g>
<!-- SharedModule -->
<g id="node22" class="node">
<title>SharedModule</title>
<polygon fill="#8dd3c7" stroke="black" points="2211.42,-122 2208.42,-126 2187.42,-126 2184.42,-122 2112.58,-122 2112.58,-86 2211.42,-86 2211.42,-122"/>
<text text-anchor="middle" x="2162" y="-99.8" font-family="Times,serif" font-size="14.00">SharedModule</text>
</g>
<!-- SharedModule&#45;&gt;ShellModule -->
<g id="edge33" class="edge">
<title>SharedModule&#45;&gt;ShellModule</title>
<path fill="none" stroke="black" d="M2140.91,-122.12C2140.91,-163.63 2140.91,-262 2140.91,-262 2140.91,-262 2993.64,-262 2993.64,-262"/>
<polygon fill="black" stroke="black" points="2993.64,-265.5 3003.64,-262 2993.64,-258.5 2993.64,-265.5"/>
</g>
<!-- SharedModule&#45;&gt;ProductModule -->
<g id="edge18" class="edge">
<title>SharedModule&#45;&gt;ProductModule</title>
<path fill="none" stroke="black" d="M2126.85,-122.16C2126.85,-144.35 2126.85,-179 2126.85,-179 2126.85,-179 1236.85,-179 1236.85,-179"/>
<polygon fill="black" stroke="black" points="1236.85,-175.5 1226.85,-179 1236.85,-182.5 1236.85,-175.5"/>
</g>
<!-- BsImportModule  -->
<g id="node32" class="node">
<title>BsImportModule </title>
<polygon fill="#fb8072" stroke="black" points="2636.93,-198 2521.07,-198 2521.07,-162 2636.93,-162 2636.93,-198"/>
<text text-anchor="middle" x="2579" y="-175.8" font-family="Times,serif" font-size="14.00">BsImportModule </text>
</g>
<!-- SharedModule&#45;&gt;BsImportModule  -->
<g id="edge28" class="edge">
<title>SharedModule&#45;&gt;BsImportModule </title>
<path fill="none" stroke="black" stroke-dasharray="5,2" d="M2169.03,-122.07C2169.03,-131.46 2169.03,-141 2169.03,-141 2169.03,-141 2555.73,-141 2555.73,-141 2555.73,-141 2555.73,-151.87 2555.73,-151.87"/>
<polygon fill="black" stroke="black" points="2552.23,-151.87 2555.73,-161.87 2559.23,-151.87 2552.23,-151.87"/>
</g>
<!-- CeImportModule  -->
<g id="node33" class="node">
<title>CeImportModule </title>
<polygon fill="#fb8072" stroke="black" points="2503.2,-198 2386.8,-198 2386.8,-162 2503.2,-162 2503.2,-198"/>
<text text-anchor="middle" x="2445" y="-175.8" font-family="Times,serif" font-size="14.00">CeImportModule </text>
</g>
<!-- SharedModule&#45;&gt;CeImportModule  -->
<g id="edge29" class="edge">
<title>SharedModule&#45;&gt;CeImportModule </title>
<path fill="none" stroke="black" stroke-dasharray="5,2" d="M2154.97,-122.13C2154.97,-132.71 2154.97,-144 2154.97,-144 2154.97,-144 2392.64,-144 2392.64,-144 2392.64,-144 2392.64,-151.58 2392.64,-151.58"/>
<polygon fill="black" stroke="black" points="2389.14,-151.58 2392.64,-161.58 2396.14,-151.58 2389.14,-151.58"/>
</g>
<!-- NgImportModule  -->
<g id="node34" class="node">
<title>NgImportModule </title>
<polygon fill="#fb8072" stroke="black" points="2369.26,-198 2250.74,-198 2250.74,-162 2369.26,-162 2369.26,-198"/>
<text text-anchor="middle" x="2310" y="-175.8" font-family="Times,serif" font-size="14.00">NgImportModule </text>
</g>
<!-- SharedModule&#45;&gt;NgImportModule  -->
<g id="edge30" class="edge">
<title>SharedModule&#45;&gt;NgImportModule </title>
<path fill="none" stroke="black" stroke-dasharray="5,2" d="M2197.15,-122.42C2197.15,-149.01 2197.15,-195 2197.15,-195 2197.15,-195 2240.6,-195 2240.6,-195"/>
<polygon fill="black" stroke="black" points="2240.6,-198.5 2250.6,-195 2240.6,-191.5 2240.6,-198.5"/>
</g>
<!-- ViewsModule -->
<g id="node37" class="node">
<title>ViewsModule</title>
<polygon fill="#8dd3c7" stroke="black" points="3029.81,-198 3026.81,-202 3005.81,-202 3002.81,-198 2934.19,-198 2934.19,-162 3029.81,-162 3029.81,-198"/>
<text text-anchor="middle" x="2982" y="-175.8" font-family="Times,serif" font-size="14.00">ViewsModule</text>
</g>
<!-- SharedModule&#45;&gt;ViewsModule -->
<g id="edge42" class="edge">
<title>SharedModule&#45;&gt;ViewsModule</title>
<path fill="none" stroke="black" d="M2183.09,-122.04C2183.09,-129.75 2183.09,-137 2183.09,-137 2183.09,-137 2942.17,-137 2942.17,-137 2942.17,-137 2942.17,-151.51 2942.17,-151.51"/>
<polygon fill="black" stroke="black" points="2938.67,-151.51 2942.17,-161.51 2945.67,-151.51 2938.67,-151.51"/>
</g>
<!-- ShellComponent -->
<g id="node35" class="node">
<title>ShellComponent</title>
<polygon fill="#ffffb3" stroke="black" points="3315.11,-198 3204.89,-198 3204.89,-162 3315.11,-162 3315.11,-198"/>
<text text-anchor="middle" x="3260" y="-175.8" font-family="Times,serif" font-size="14.00">ShellComponent</text>
</g>
<!-- ShellComponent&#45;&gt;ShellModule -->
<g id="edge31" class="edge">
<title>ShellComponent&#45;&gt;ShellModule</title>
<path fill="none" stroke="black" d="M3213.33,-198.24C3213.33,-205.43 3213.33,-212 3213.33,-212 3213.33,-212 3069.72,-212 3069.72,-212 3069.72,-212 3069.72,-227.85 3069.72,-227.85"/>
<polygon fill="black" stroke="black" points="3066.22,-227.85 3069.72,-237.85 3073.22,-227.85 3066.22,-227.85"/>
</g>
<!-- ShellRoutingModule -->
<g id="node36" class="node">
<title>ShellRoutingModule</title>
<polygon fill="#8dd3c7" stroke="black" points="3180.95,-198 3177.95,-202 3156.95,-202 3153.95,-198 3047.05,-198 3047.05,-162 3180.95,-162 3180.95,-198"/>
<text text-anchor="middle" x="3114" y="-175.8" font-family="Times,serif" font-size="14.00">ShellRoutingModule</text>
</g>
<!-- ShellRoutingModule&#45;&gt;ShellModule -->
<g id="edge34" class="edge">
<title>ShellRoutingModule&#45;&gt;ShellModule</title>
<path fill="none" stroke="black" d="M3058.5,-198.01C3058.5,-198.01 3058.5,-227.85 3058.5,-227.85"/>
<polygon fill="black" stroke="black" points="3055,-227.85 3058.5,-237.85 3062,-227.85 3055,-227.85"/>
</g>
<!-- ViewsModule&#45;&gt;ShellModule -->
<g id="edge35" class="edge">
<title>ViewsModule&#45;&gt;ShellModule</title>
<path fill="none" stroke="black" d="M3016.75,-198.01C3016.75,-198.01 3016.75,-227.85 3016.75,-227.85"/>
<polygon fill="black" stroke="black" points="3013.25,-227.85 3016.75,-237.85 3020.25,-227.85 3013.25,-227.85"/>
</g>
<!-- ViewLoginComponent  -->
<g id="node44" class="node">
<title>ViewLoginComponent </title>
<polygon fill="#fb8072" stroke="black" points="2981.09,-122 2832.91,-122 2832.91,-86 2981.09,-86 2981.09,-122"/>
<text text-anchor="middle" x="2907" y="-99.8" font-family="Times,serif" font-size="14.00">ViewLoginComponent </text>
</g>
<!-- ViewsModule&#45;&gt;ViewLoginComponent  -->
<g id="edge43" class="edge">
<title>ViewsModule&#45;&gt;ViewLoginComponent </title>
<path fill="none" stroke="black" stroke-dasharray="5,2" d="M2973.47,-161.99C2973.47,-161.99 2973.47,-132.15 2973.47,-132.15"/>
<polygon fill="black" stroke="black" points="2976.97,-132.15 2973.47,-122.15 2969.97,-132.15 2976.97,-132.15"/>
</g>
<!-- ViewNotFoundComponent  -->
<g id="node45" class="node">
<title>ViewNotFoundComponent </title>
<polygon fill="#fb8072" stroke="black" points="2814.93,-122 2643.07,-122 2643.07,-86 2814.93,-86 2814.93,-122"/>
<text text-anchor="middle" x="2729" y="-99.8" font-family="Times,serif" font-size="14.00">ViewNotFoundComponent </text>
</g>
<!-- ViewsModule&#45;&gt;ViewNotFoundComponent  -->
<g id="edge44" class="edge">
<title>ViewsModule&#45;&gt;ViewNotFoundComponent </title>
<path fill="none" stroke="black" stroke-dasharray="5,2" d="M2965.65,-161.72C2965.65,-146.05 2965.65,-126 2965.65,-126 2965.65,-126 2805.58,-126 2805.58,-126 2805.58,-126 2805.58,-125.62 2805.58,-125.62"/>
<polygon fill="black" stroke="black" points="2809.08,-132.17 2805.58,-122.17 2802.08,-132.17 2809.08,-132.17"/>
</g>
<!-- ViewProductCatalogComponent  -->
<g id="node46" class="node">
<title>ViewProductCatalogComponent </title>
<polygon fill="#fb8072" stroke="black" points="2625.25,-122 2422.75,-122 2422.75,-86 2625.25,-86 2625.25,-122"/>
<text text-anchor="middle" x="2524" y="-99.8" font-family="Times,serif" font-size="14.00">ViewProductCatalogComponent </text>
</g>
<!-- ViewsModule&#45;&gt;ViewProductCatalogComponent  -->
<g id="edge45" class="edge">
<title>ViewsModule&#45;&gt;ViewProductCatalogComponent </title>
<path fill="none" stroke="black" stroke-dasharray="5,2" d="M2957.82,-161.95C2957.82,-147.63 2957.82,-130 2957.82,-130 2957.82,-130 2590.43,-130 2590.43,-130 2590.43,-130 2590.43,-129.21 2590.43,-129.21"/>
<polygon fill="black" stroke="black" points="2593.93,-132.06 2590.43,-122.06 2586.93,-132.06 2593.93,-132.06"/>
</g>
<!-- ViewProfileComponent  -->
<g id="node47" class="node">
<title>ViewProfileComponent </title>
<polygon fill="#fb8072" stroke="black" points="2404.75,-122 2251.25,-122 2251.25,-86 2404.75,-86 2404.75,-122"/>
<text text-anchor="middle" x="2328" y="-99.8" font-family="Times,serif" font-size="14.00">ViewProfileComponent </text>
</g>
<!-- ViewsModule&#45;&gt;ViewProfileComponent  -->
<g id="edge46" class="edge">
<title>ViewsModule&#45;&gt;ViewProfileComponent </title>
<path fill="none" stroke="black" stroke-dasharray="5,2" d="M2949.99,-161.96C2949.99,-148.71 2949.99,-133 2949.99,-133 2949.99,-133 2398.63,-133 2398.63,-133 2398.63,-133 2398.63,-131.92 2398.63,-131.92"/>
<polygon fill="black" stroke="black" points="2402.13,-132.2 2398.63,-122.2 2395.13,-132.2 2402.13,-132.2"/>
</g>
<!-- ViewLoginComponent -->
<g id="node39" class="node">
<title>ViewLoginComponent</title>
<polygon fill="#ffffb3" stroke="black" points="3849.59,-122 3704.41,-122 3704.41,-86 3849.59,-86 3849.59,-122"/>
<text text-anchor="middle" x="3777" y="-99.8" font-family="Times,serif" font-size="14.00">ViewLoginComponent</text>
</g>
<!-- ViewLoginComponent&#45;&gt;ViewsModule -->
<g id="edge37" class="edge">
<title>ViewLoginComponent&#45;&gt;ViewsModule</title>
<path fill="none" stroke="black" d="M3777,-122.01C3777,-138.05 3777,-159 3777,-159 3777,-159 3025.49,-159 3025.49,-159 3025.49,-159 3025.49,-159.29 3025.49,-159.29"/>
<polygon fill="black" stroke="black" points="3021.99,-151.92 3025.49,-161.92 3028.99,-151.92 3021.99,-151.92"/>
</g>
<!-- ViewNotFoundComponent -->
<g id="node40" class="node">
<title>ViewNotFoundComponent</title>
<polygon fill="#ffffb3" stroke="black" points="3686.43,-122 3517.57,-122 3517.57,-86 3686.43,-86 3686.43,-122"/>
<text text-anchor="middle" x="3602" y="-99.8" font-family="Times,serif" font-size="14.00">ViewNotFoundComponent</text>
</g>
<!-- ViewNotFoundComponent&#45;&gt;ViewsModule -->
<g id="edge38" class="edge">
<title>ViewNotFoundComponent&#45;&gt;ViewsModule</title>
<path fill="none" stroke="black" d="M3602,-122.12C3602,-136.78 3602,-155 3602,-155 3602,-155 3021.33,-155 3021.33,-155 3021.33,-155 3021.33,-155.68 3021.33,-155.68"/>
<polygon fill="black" stroke="black" points="3017.83,-151.83 3021.33,-161.83 3024.83,-151.83 3017.83,-151.83"/>
</g>
<!-- ViewProductCatalogComponent -->
<g id="node41" class="node">
<title>ViewProductCatalogComponent</title>
<polygon fill="#ffffb3" stroke="black" points="3499.25,-122 3300.75,-122 3300.75,-86 3499.25,-86 3499.25,-122"/>
<text text-anchor="middle" x="3400" y="-99.8" font-family="Times,serif" font-size="14.00">ViewProductCatalogComponent</text>
</g>
<!-- ViewProductCatalogComponent&#45;&gt;ViewsModule -->
<g id="edge39" class="edge">
<title>ViewProductCatalogComponent&#45;&gt;ViewsModule</title>
<path fill="none" stroke="black" d="M3307.84,-122.15C3307.84,-135.74 3307.84,-152 3307.84,-152 3307.84,-152 3017.17,-152 3017.17,-152 3017.17,-152 3017.17,-152.98 3017.17,-152.98"/>
<polygon fill="black" stroke="black" points="3013.67,-151.79 3017.17,-161.79 3020.67,-151.79 3013.67,-151.79"/>
</g>
<!-- ViewProfileComponent -->
<g id="node42" class="node">
<title>ViewProfileComponent</title>
<polygon fill="#ffffb3" stroke="black" points="3282.75,-122 3133.25,-122 3133.25,-86 3282.75,-86 3282.75,-122"/>
<text text-anchor="middle" x="3208" y="-99.8" font-family="Times,serif" font-size="14.00">ViewProfileComponent</text>
</g>
<!-- ViewProfileComponent&#45;&gt;ViewsModule -->
<g id="edge40" class="edge">
<title>ViewProfileComponent&#45;&gt;ViewsModule</title>
<path fill="none" stroke="black" d="M3156.92,-122.15C3156.92,-134.27 3156.92,-148 3156.92,-148 3156.92,-148 3013,-148 3013,-148 3013,-148 3013,-151.76 3013,-151.76"/>
<polygon fill="black" stroke="black" points="3009.5,-151.76 3013,-161.76 3016.5,-151.76 3009.5,-151.76"/>
</g>
<!-- LayoutsModule -->
<g id="node43" class="node">
<title>LayoutsModule</title>
<polygon fill="#8dd3c7" stroke="black" points="3109.15,-122 3106.15,-126 3085.15,-126 3082.15,-122 3004.85,-122 3004.85,-86 3109.15,-86 3109.15,-122"/>
<text text-anchor="middle" x="3057" y="-99.8" font-family="Times,serif" font-size="14.00">LayoutsModule</text>
</g>
<!-- LayoutsModule&#45;&gt;ViewsModule -->
<g id="edge41" class="edge">
<title>LayoutsModule&#45;&gt;ViewsModule</title>
<path fill="none" stroke="black" d="M3008.84,-122.01C3008.84,-122.01 3008.84,-151.85 3008.84,-151.85"/>
<polygon fill="black" stroke="black" points="3005.34,-151.85 3008.84,-161.85 3012.34,-151.85 3005.34,-151.85"/>
</g>
</g>
</svg>
